<mxfile host="app.diagrams.net" modified="2021-02-25T09:29:50.255Z" agent="5.0 (Windows NT 10.0; Win64; x64) AppleWebKit/537.36 (KHTML, like Gecko) Chrome/88.0.4324.182 Safari/537.36 Edg/88.0.705.74" etag="GZTjsSzRra7x1Cu5Givm" version="14.4.3" type="github">
  <diagram id="SGGEg8-f1AX-1B7eqWzd" name="Page-1">
    <mxGraphModel dx="1422" dy="762" grid="1" gridSize="10" guides="1" tooltips="1" connect="1" arrows="1" fold="1" page="1" pageScale="1" pageWidth="3300" pageHeight="4681" math="0" shadow="0">
      <root>
        <mxCell id="0" />
        <mxCell id="1" parent="0" />
        <mxCell id="AkNCMuwGdahxlioAIFWI-7" style="edgeStyle=orthogonalEdgeStyle;rounded=0;orthogonalLoop=1;jettySize=auto;html=1;exitX=0.5;exitY=0;exitDx=0;exitDy=0;entryX=0;entryY=0.5;entryDx=0;entryDy=0;" edge="1" parent="1" source="AkNCMuwGdahxlioAIFWI-1" target="AkNCMuwGdahxlioAIFWI-6">
          <mxGeometry relative="1" as="geometry" />
        </mxCell>
        <mxCell id="AkNCMuwGdahxlioAIFWI-11" style="edgeStyle=orthogonalEdgeStyle;rounded=0;orthogonalLoop=1;jettySize=auto;html=1;entryX=0;entryY=0.5;entryDx=0;entryDy=0;" edge="1" parent="1" source="AkNCMuwGdahxlioAIFWI-1" target="AkNCMuwGdahxlioAIFWI-10">
          <mxGeometry relative="1" as="geometry">
            <Array as="points">
              <mxPoint x="770" y="680" />
            </Array>
          </mxGeometry>
        </mxCell>
        <mxCell id="AkNCMuwGdahxlioAIFWI-1" value="工作区" style="rounded=1;whiteSpace=wrap;html=1;" vertex="1" parent="1">
          <mxGeometry x="710" y="530" width="120" height="60" as="geometry" />
        </mxCell>
        <mxCell id="AkNCMuwGdahxlioAIFWI-5" value="" style="edgeStyle=orthogonalEdgeStyle;rounded=0;orthogonalLoop=1;jettySize=auto;html=1;" edge="1" parent="1" source="AkNCMuwGdahxlioAIFWI-2" target="AkNCMuwGdahxlioAIFWI-4">
          <mxGeometry relative="1" as="geometry">
            <Array as="points">
              <mxPoint x="1240" y="570" />
              <mxPoint x="1240" y="570" />
            </Array>
          </mxGeometry>
        </mxCell>
        <mxCell id="AkNCMuwGdahxlioAIFWI-2" value="本地仓库" style="rounded=1;whiteSpace=wrap;html=1;" vertex="1" parent="1">
          <mxGeometry x="1010" y="530" width="120" height="60" as="geometry" />
        </mxCell>
        <mxCell id="AkNCMuwGdahxlioAIFWI-24" style="edgeStyle=orthogonalEdgeStyle;rounded=0;orthogonalLoop=1;jettySize=auto;html=1;entryX=1;entryY=0.25;entryDx=0;entryDy=0;" edge="1" parent="1" source="AkNCMuwGdahxlioAIFWI-4" target="AkNCMuwGdahxlioAIFWI-2">
          <mxGeometry relative="1" as="geometry">
            <Array as="points">
              <mxPoint x="1250" y="545" />
              <mxPoint x="1250" y="545" />
            </Array>
          </mxGeometry>
        </mxCell>
        <mxCell id="AkNCMuwGdahxlioAIFWI-4" value="远程仓库" style="rounded=1;whiteSpace=wrap;html=1;" vertex="1" parent="1">
          <mxGeometry x="1290" y="530" width="120" height="60" as="geometry" />
        </mxCell>
        <mxCell id="AkNCMuwGdahxlioAIFWI-17" style="edgeStyle=orthogonalEdgeStyle;rounded=0;orthogonalLoop=1;jettySize=auto;html=1;exitX=0.5;exitY=1;exitDx=0;exitDy=0;entryX=0.75;entryY=0;entryDx=0;entryDy=0;" edge="1" parent="1" source="AkNCMuwGdahxlioAIFWI-6" target="AkNCMuwGdahxlioAIFWI-1">
          <mxGeometry relative="1" as="geometry" />
        </mxCell>
        <mxCell id="AkNCMuwGdahxlioAIFWI-6" value="缓存" style="rounded=1;whiteSpace=wrap;html=1;" vertex="1" parent="1">
          <mxGeometry x="810" y="410" width="120" height="60" as="geometry" />
        </mxCell>
        <mxCell id="AkNCMuwGdahxlioAIFWI-8" value="git stash" style="text;html=1;align=center;verticalAlign=middle;resizable=0;points=[];autosize=1;" vertex="1" parent="1">
          <mxGeometry x="695" y="470" width="70" height="20" as="geometry" />
        </mxCell>
        <mxCell id="AkNCMuwGdahxlioAIFWI-14" style="edgeStyle=orthogonalEdgeStyle;rounded=0;orthogonalLoop=1;jettySize=auto;html=1;entryX=0.5;entryY=1;entryDx=0;entryDy=0;" edge="1" parent="1" source="AkNCMuwGdahxlioAIFWI-10" target="AkNCMuwGdahxlioAIFWI-2">
          <mxGeometry relative="1" as="geometry" />
        </mxCell>
        <mxCell id="AkNCMuwGdahxlioAIFWI-10" value="暂存区" style="rounded=1;whiteSpace=wrap;html=1;" vertex="1" parent="1">
          <mxGeometry x="860" y="650" width="120" height="60" as="geometry" />
        </mxCell>
        <mxCell id="AkNCMuwGdahxlioAIFWI-13" value="git add" style="text;html=1;align=center;verticalAlign=middle;resizable=0;points=[];autosize=1;" vertex="1" parent="1">
          <mxGeometry x="780" y="660" width="60" height="20" as="geometry" />
        </mxCell>
        <mxCell id="AkNCMuwGdahxlioAIFWI-15" value="git commit" style="text;html=1;align=center;verticalAlign=middle;resizable=0;points=[];autosize=1;" vertex="1" parent="1">
          <mxGeometry x="980" y="660" width="80" height="20" as="geometry" />
        </mxCell>
        <mxCell id="AkNCMuwGdahxlioAIFWI-18" value="git pop" style="text;html=1;align=center;verticalAlign=middle;resizable=0;points=[];autosize=1;" vertex="1" parent="1">
          <mxGeometry x="870" y="480" width="60" height="20" as="geometry" />
        </mxCell>
        <mxCell id="AkNCMuwGdahxlioAIFWI-19" value="git push" style="text;html=1;align=center;verticalAlign=middle;resizable=0;points=[];autosize=1;" vertex="1" parent="1">
          <mxGeometry x="1170" y="570" width="70" height="20" as="geometry" />
        </mxCell>
        <mxCell id="AkNCMuwGdahxlioAIFWI-25" value="git pull/clone" style="text;html=1;align=center;verticalAlign=middle;resizable=0;points=[];autosize=1;" vertex="1" parent="1">
          <mxGeometry x="1150" y="520" width="110" height="20" as="geometry" />
        </mxCell>
      </root>
    </mxGraphModel>
  </diagram>
</mxfile>
